<?xml version="1.0"?>
<svg xmlns="http://www.w3.org/2000/svg" height="512px" viewBox="0 0 512 512" width="512px"><g><path d="m229.28125 154.726562c-19.042969 0-34.535156 15.492188-34.535156 34.535157s15.492187 34.535156 34.535156 34.535156 34.535156-15.492187 34.535156-34.535156-15.492187-34.535157-34.535156-34.535157zm0 54.074219c-10.773438 0-19.539062-8.765625-19.539062-19.539062 0-10.773438 8.765624-19.539063 19.539062-19.539063s19.539062 8.765625 19.539062 19.539063c0 10.773437-8.765624 19.539062-19.539062 19.539062zm0 0" data-original="#000000" class="active-path" data-old_color="#5524cf" fill="#5524cf"/><path d="m504.460938 319.050781c4.140624 0 7.5-3.359375 7.5-7.5v-225.757812c0-2.457031-1.203126-4.757813-3.21875-6.160157-2.019532-1.402343-4.59375-1.726562-6.894532-.871093-29.0625 10.8125-67.183594 19.394531-110.390625 25.222656v-66.488281c0-20.675782-16.820312-37.49218775-37.496093-37.49218775h-36.273438c-.007812 0-.019531-.00390625-.03125-.00390625h-123.351562c-.011719 0-.023438.00390625-.035157.00390625h-36.273437c-20.671875 0-37.492188 16.81640575-37.492188 37.49218775v66.488281c-43.210937-5.828125-81.332031-14.414063-110.390625-25.222656-2.304687-.855469-4.878906-.53125-6.894531.871093-2.015625 1.398438-3.21875 3.699219-3.21875 6.15625v57.511719c0 4.140625 3.355469 7.5 7.5 7.5 4.140625 0 7.496094-3.359375 7.496094-7.5v-46.914062c29.300781 9.8125 65.265625 17.539062 105.507812 22.855469v149.261718l-105.507812 119.84375v-215.054687c0-4.140625-3.355469-7.496094-7.496094-7.496094-4.144531 0-7.5 3.355469-7.5 7.496094v234.921875c0 .054687.0078125.109375.0117188.167968.0039062.195313.015625.386719.0351562.582032.0078125.089844.015625.183594.0273438.273437.0312502.214844.0703122.425781.1210932.636719.011719.058594.019532.117188.035157.175781.070312.269531.152343.539063.25.804688.011719.03125.027343.058593.039062.089843.089844.226563.1875.449219.300781.671876.03125.0625.066407.125.101563.1875.101563.183593.207031.363281.324219.539062.046875.066406.089844.132812.136718.199219.117188.167969.246094.328125.375.484375.054688.0625.105469.128906.160157.1875.152343.171875.316406.335937.488281.496094.039062.035156.074219.074218.113281.109374.007813.007813.015625.015626.023438.023438.203125.179688.417969.339844.636719.496094.011718.007812.023437.019531.039062.03125.023438.015625.046875.027344.070312.042968.292969.199219.59375.378907.90625.53125.007813.003907.015626.007813.023438.011719.320312.15625.644531.28125.980469.390625.042969.011719.085937.027344.132812.042969.324219.097656.65625.171875.988281.226563.046876.007812.09375.011718.140626.019531.34375.046875.6875.078125 1.035156.078125.242187 0 .484375-.015625.726562-.039063.078125-.007812.152344-.023437.230469-.03125.160156-.023437.324219-.042969.484375-.078125.097656-.015625.191406-.039062.289062-.0625.136719-.035156.277344-.070312.414063-.109375.105469-.03125.210937-.066406.3125-.101562.054687-.019531.105469-.03125.160156-.050781 29.058594-10.8125 67.179688-19.394532 110.390625-25.222657v84.488281c0 20.671876 16.820313 37.492188 37.492188 37.492188h195.96875c20.671875 0 37.492187-16.820312 37.492187-37.492188v-84.492187c43.210938 5.828125 81.332031 14.414063 110.390625 25.222656.042969.015625.085938.023438.128906.039063.191407.070312.382813.125.578126.175781.085937.023437.171874.050781.257812.066406.210938.050781.425781.085938.640625.113281.066406.007813.128906.023438.195313.03125.269531.027344.542968.046876.816406.046876.007812 0 .019531-.003907.03125-.003907h.070312c.25-.003906.5-.023437.746094-.050781.070312-.007812.136719-.015625.207031-.027344.21875-.03125.433594-.070312.648438-.121094.054687-.015624.113281-.027343.167969-.039062.535156-.140625 1.0625-.335938 1.5625-.597656.058593-.027344.109374-.0625.167968-.089844.1875-.105469.375-.21875.558594-.339844.035156-.027344.078125-.046875.117188-.070312.027343-.023438.050781-.046875.078124-.066406.179688-.125.351563-.265626.523438-.410157.046875-.039062.09375-.078125.140625-.121093.011719-.007813.027344-.019532.039063-.027344.199218-.183594.382812-.375.558593-.574219.027344-.03125.050781-.0625.078125-.09375.15625-.1875.304688-.375.445313-.574219.039062-.058594.078125-.121094.121093-.183594.113282-.175781.222657-.355468.320313-.539062.039063-.070312.074219-.140625.109375-.210938.09375-.1875.179688-.375.257812-.566406.027344-.070312.054688-.136718.082032-.207031.085937-.234375.160156-.46875.222656-.710937.007812-.027344.015625-.058594.023438-.089844.066406-.269532.117187-.539063.152343-.816406.007813-.074219.011719-.152344.019531-.226563.019532-.203125.035157-.40625.039063-.609375 0-.046875.007813-.089844.007813-.132812v-66.664063c0-4.140625-3.359376-7.5-7.5-7.5-4.140626 0-7.5 3.359375-7.5 7.5v47.359375l-105.503907-115.316406v-154.34375c40.242188-5.320313 76.207031-13.042969 105.503907-22.855469v215.160156c0 4.144531 3.359374 7.5 7.5 7.5zm-199.8125-304.050781c-5.679688 6.367188-13.914063 10.230469-22.777344 10.230469h-51.78125c-8.863282 0-17.101563-3.863281-22.777344-10.230469zm-169.148438 22.496094c0-12.40625 10.089844-22.496094 22.496094-22.496094h31.363281c7.613281 15.285156 23.367187 25.226562 40.730469 25.226562h51.78125c17.363281 0 33.113281-9.945312 40.726562-25.226562h31.363282c12.40625 0 22.496093 10.089844 22.496093 22.496094v68.378906c-37.617187 4.40625-78.574219 6.777344-120.472656 6.777344-41.902344 0-82.867187-2.371094-120.484375-6.777344zm-104.253906 355.09375 89.257812-101.390625v83.5625c-33.09375 4.371093-63.28125 10.375-89.257812 17.828125zm345.210937 81.917968c0 12.402344-10.089843 22.496094-22.496093 22.496094h-195.964844c-12.40625 0-22.496094-10.09375-22.496094-22.496094v-86.378906c37.617188-4.40625 78.582031-6.777344 120.484375-6.777344 41.898437 0 82.855469 2.371094 120.472656 6.777344zm103.285157-82.207031c-25.753907-7.320312-55.609376-13.222656-88.285157-17.542969v-78.953124zm-103.285157-135.105469-35.71875-39.039062c-5.738281-6.375-13.949219-10.03125-22.523437-10.03125-8.578125 0-16.789063 3.65625-22.53125 10.03125l-30.121094 33.460938c-2.773438 3.078124-2.523438 7.816406.554688 10.589843 3.078124 2.769531 7.820312 2.519531 10.589843-.558593l30.125-33.457032c2.941407-3.269531 6.984375-5.070312 11.382813-5.070312 4.394531 0 8.4375 1.800781 11.421875 5.113281l46.824219 51.179687v93.5c-37.457032-4.289062-78.199219-6.558593-120.476563-6.558593-42.28125 0-83.027344 2.269531-120.484375 6.558593v-98.75l15.386719-17.476562c2.5-2.773438 5.933593-4.304688 9.664062-4.304688 3.734375 0 7.164063 1.527344 9.664063 4.304688l49.910156 55.4375c.007812.007812.011719.015625.019531.019531l31.78125 35.304688c2.769531 3.078125 7.511719 3.324219 10.589844.554687 3.078125-2.769531 3.328125-7.507812.554687-10.589844l-27.285156-30.308593 20.839844-23.148438c2.773438-3.078125 2.523438-7.820312-.554688-10.589843-3.078124-2.773438-7.816406-2.523438-10.589843.554687l-19.785157 21.976563-44.335937-49.246094c-5.300781-5.886719-12.886719-9.265625-20.808594-9.265625-7.925781 0-15.507812 3.378906-20.867187 9.328125l-4.183594 4.753906v-130.375c37.457031 4.285156 78.203125 6.558594 120.484375 6.558594 42.277344 0 83.019531-2.273438 120.472656-6.558594zm0 0" data-original="#000000" class="active-path" data-old_color="#5524cf" fill="#5524cf"/><path d="m217.667969 470.890625c0 4.144531 3.355469 7.5 7.5 7.5h61.625c4.144531 0 7.5-3.355469 7.5-7.5 0-4.140625-3.355469-7.496094-7.5-7.496094h-61.625c-4.144531 0-7.5 3.355469-7.5 7.496094zm0 0" data-original="#000000" class="active-path" data-old_color="#5524cf" fill="#5524cf"/></g> </svg>
