<?xml version="1.0" encoding="utf-8"?>
<!-- Generator: Adobe Illustrator 23.0.3, SVG Export Plug-In . SVG Version: 6.00 Build 0)  -->
<svg version="1.1" id="Layer_1" xmlns="http://www.w3.org/2000/svg" xmlns:xlink="http://www.w3.org/1999/xlink" x="0px" y="0px"
	 viewBox="0 0 828 220.7" style="enable-background:new 0 0 828 220.7;" xml:space="preserve">
<style type="text/css">
	.st0{fill:#5524CF;}
</style>
<title>webflow</title>
<g>
	<path class="st0" d="M275.3,87.2c0-14.5-14-29.9-38.3-29.9c-27.3,0-57.3,20.1-61.8,60.2c-4.7,40.5,20.4,58.5,45.7,58.5
		s38.5-9.9,52.1-23.1c-11.6-14.7-26.7-7.9-29.6-6.4c-4.8,2.7-10.2,4-15.6,3.8c-9.8,0-19.7-4.4-19.7-22.7
		C270.5,121.4,275.3,101.7,275.3,87.2z M244.3,89.6c-0.4,4.5-2.2,12.2-33.9,16.5c6.7-23.8,19.4-25.6,25.3-25.6
		c4.6-0.2,8.5,3.3,8.7,7.9C244.4,88.8,244.4,89.2,244.3,89.6L244.3,89.6z M138.3,93.5c0,0-13.4,42.4-14.5,45.9
		c-0.4-3.6-10.3-79.7-10.3-79.7c-22.9,0-35.2,16.4-41.6,33.7c0,0-16.3,42.5-17.7,46.1c-0.1-3.3-2.5-45.6-2.5-45.6
		C50.3,72.7,31,59.8,15.3,59.8l18.9,115.3c24-0.1,37-16.4,43.7-33.7c0,0,14.4-37.5,15-39.2c0.1,1.6,10.4,72.9,10.4,72.9
		c24.1,0,37.1-15.3,44-32l33.8-83.3C157.3,59.8,144.8,76.1,138.3,93.5z M363.7,57.1c-14.8,0-26.2,8.1-35.8,20V77l8.6-69.3
		c-19.7,0-35.8,17.2-38.8,42.8l-14.9,123.7c11.4,0,23.4-3.3,29.9-11.7c5.8,7.5,14.4,13.5,27.3,13.5c33.3,0,56.1-38.8,56.1-75.2
		C395.8,67.6,379.7,57.1,363.7,57.1z M360.6,116.6c-3.5,20.3-14.7,34.1-25.6,34.1s-15.6-4.9-15.6-4.9c2.1-17.8,3.4-28.7,7.4-38.1
		s13.5-24.4,23.3-24.4C359.7,83.3,364.1,96.2,360.6,116.6z M479,59.8h-23.2l0.1-1.2c1.6-15.2,5.2-23.2,17-24.5
		c8.1-0.8,11.7-5,12.5-9.6c0.7-3.6,2.9-16.1,2.9-16.1c-46.6-0.3-61.3,19.9-65,50.7l-0.1,0.7h-0.5c-7.6,0-15.9,8.6-17.3,19.5l-0.5,4
		h15.5l-13.1,108.2l-4,19.4c0.5,0,1.1,0.1,1.6,0.1c21.8-0.8,35.8-18.1,38.8-43.2L454,83.3h7.3c7.2,0,15.5-7.2,17-19.2L479,59.8z
		 M599.7,57.8c-26.8,0-52.1,19.8-59.8,50.9s4,67.9,43.4,67.9s62-38.3,62-70.2C645.3,74.7,623.9,57.8,599.7,57.8z M610.6,115.6
		c-1.4,14.1-7.6,35.5-24.5,35.5s-14.6-25-13-36.9c1.8-12.7,8.9-30.8,24.1-30.8C610.9,83.4,612.2,99.7,610.6,115.6z M777.7,93.5
		c0,0-13.4,42.4-14.5,45.9c-0.4-3.6-10.3-79.7-10.3-79.7c-22.9,0-35.2,16.4-41.6,33.7c0,0-16.3,42.5-17.7,46.1
		c-0.1-3.3-2.5-45.6-2.5-45.6c-1.4-21.2-20.8-34.1-36.4-34.1l18.8,115.3c24-0.1,37-16.4,43.7-33.7c0,0,14.4-37.5,14.9-39.2
		c0.1,1.6,10.4,72.9,10.4,72.9c24.1,0,37-15.3,44-32l33.8-83.3C796.6,59.8,784.1,76.1,777.7,93.5z M500.9,8.4l-19.5,158.1l0,0
		l-4,19.5c0.5,0,1.1,0.1,1.6,0.1l0,0c21-0.3,36-18.8,38.7-42.1L529,53.3C532.4,25.6,516,8.4,500.9,8.4z"/>
</g>
</svg>
